<svg height="512pt" viewBox="0 0 512 512" width="512pt" xmlns="http://www.w3.org/2000/svg"><path d="m341.902344 197.402344v117.195312c0 19.089844-15.476563 34.566406-34.566406 34.566406h-171.65625c-19.089844 0-34.566407-15.476562-34.566407-34.566406v-117.195312c0-19.089844 15.476563-34.566406 34.566407-34.566406h171.65625c19.089843 0 34.566406 15.476562 34.566406 34.566406zm0 0" fill="#3a3d51"/><path d="m414.28125 195.925781v123.738281c0 6.800782-7.328125 11.074219-13.246094 7.730469l-51.851562-29.296875-7.28125-4.117187v-72.378907l7.28125-4.117187 51.851562-29.289063c5.917969-3.339843 13.246094.933594 13.246094 7.730469zm0 0" fill="#65687f"/><path d="m349.183594 251.316406v-33.832031l-7.28125 4.117187-10.453125 36.109376 10.449219 36.265624v.003907l3.640624 2.058593 3.644532 2.058594 51.847656 29.296875c5.917969 3.34375 13.246094-.933593 13.246094-7.730469v-42.203124l-48.507813-6.996094c-9.519531-1.371094-16.585937-9.53125-16.585937-19.148438zm0 0" fill="#3a3d51"/><path d="m341.902344 197.402344v117.195312c0 19.089844-15.476563 34.566406-34.566406 34.566406h-141.699219c-19.089844 0-34.566407-15.476562-34.566407-34.566406v-117.195312c0-19.089844 15.476563-34.566406 34.566407-34.566406h141.699219c19.089843 0 34.566406 15.476562 34.566406 34.566406zm0 0" fill="#65687f"/><path d="m204.230469 256c0 14.847656-12.035157 26.882812-26.882813 26.882812s-26.882812-12.035156-26.882812-26.882812 12.035156-26.882812 26.882812-26.882812 26.882813 12.035156 26.882813 26.882812zm0 0" fill="#fff"/><path d="m177.347656 290.722656c-19.144531 0-34.71875-15.578125-34.71875-34.722656s15.574219-34.71875 34.71875-34.71875c19.144532 0 34.722656 15.574219 34.722656 34.71875s-15.578124 34.722656-34.722656 34.722656zm0-53.769531c-10.5 0-19.046875 8.546875-19.046875 19.046875 0 10.503906 8.546875 19.046875 19.046875 19.046875 10.503906 0 19.046875-8.542969 19.046875-19.046875 0-10.5-8.542969-19.046875-19.046875-19.046875zm0 0" fill="#3a3d51"/><path d="m296.589844 256c0 14.847656-12.039063 26.882812-26.886719 26.882812-14.84375 0-26.882813-12.035156-26.882813-26.882812s12.039063-26.882812 26.882813-26.882812c14.847656 0 26.886719 12.035156 26.886719 26.882812zm0 0" fill="#fff"/><path d="m269.703125 290.722656c-19.144531 0-34.71875-15.578125-34.71875-34.722656s15.574219-34.71875 34.71875-34.71875 34.722656 15.574219 34.722656 34.71875-15.578125 34.722656-34.722656 34.722656zm0-53.769531c-10.5 0-19.046875 8.546875-19.046875 19.046875 0 10.503906 8.546875 19.046875 19.046875 19.046875 10.503906 0 19.046875-8.542969 19.046875-19.046875 0-10.5-8.542969-19.046875-19.046875-19.046875zm0 0" fill="#3a3d51"/><path d="m256 0c-141.386719 0-256 114.613281-256 256s114.613281 256 256 256 256-114.613281 256-256-114.613281-256-256-256zm-209.953125 256c0-71.15625 35.40625-134.03125 89.550781-172.003906l200.417969 366.152344c-24.664063 10.175781-51.679687 15.800781-80.015625 15.800781-115.953125.003906-209.953125-93.996094-209.953125-209.949219zm330.347656 172.007812-200.414062-366.15625c24.660156-10.175781 51.683593-15.804687 80.019531-15.804687 115.953125 0 209.941406 94 209.941406 209.953125 0 71.15625-35.402344 134.035156-89.546875 172.007812zm0 0" fill="#ff5a73"/></svg>