<?xml version="1.0" encoding="iso-8859-1"?>
<!-- Generator: Adobe Illustrator 21.0.0, SVG Export Plug-In . SVG Version: 6.00 Build 0)  -->
<svg xmlns="http://www.w3.org/2000/svg" xmlns:xlink="http://www.w3.org/1999/xlink" version="1.1" id="Capa_1" x="0px" y="0px" viewBox="0 0 512 512" style="enable-background:new 0 0 512 512;" xml:space="preserve" width="512" height="512">
<g>
	<path style="fill:#FAB941;" d="M263.909,22.36c-64.606-3.54-124.725,18.297-170.695,56.81L16.088,338.456   c29.147,95.579,115.435,167.385,221.009,173.17c135.107,7.404,250.635-96.12,258.039-231.227   C502.54,145.293,399.016,29.765,263.909,22.36z"/>
	<g>
		<path style="fill:#E2E9F2;" d="M188.32,88.758c-3.805-3.377-4.153-9.201-0.775-13.006l46.961-52.918    c13.784-15.738,32.329-9.997,43.081-11.191c5.089,0,9.213,4.125,9.213,9.213c0,5.088-4.124,9.213-9.213,9.213h-18.342    c-4.182,0-8.161,1.805-10.918,4.951l-47,52.962C197.957,91.781,192.134,92.142,188.32,88.758z"/>
	</g>
	<g>
		<path style="fill:#C7D6E5;" d="M222.79,36.035l-35.245,39.717c-3.378,3.806-3.03,9.629,0.775,13.006    c3.814,3.384,9.637,3.022,13.006-0.776l34.654-39.05C228.077,51.278,220.609,44.053,222.79,36.035z"/>
	</g>
	<path style="fill:#F6A221;" d="M29.301,372.415c37.36,78.211,115.149,134.134,207.796,139.212   c102.172,5.599,193.133-52.249,234.617-139.212H29.301z"/>
	<g>
		<path style="fill:#F28A00;" d="M341.998,372.415H29.301c37.36,78.211,115.149,134.134,207.796,139.211    c30.134,1.651,59.291-2.22,86.493-10.726C281.816,467.777,288.974,392.687,341.998,372.415z"/>
	</g>
	<g>
		<path style="fill:#494970;" d="M311.221,33.14h-33.634c-6.784,0-12.284-5.5-12.284-12.284s5.5-12.284,12.284-12.284h33.634    c6.784,0,12.284,5.5,12.284,12.284S318.005,33.14,311.221,33.14z"/>
	</g>
	<path style="fill:#494970;" d="M411.31,20.856C411.31,9.337,401.973,0,390.454,0h-65.5c-11.518,0-20.856,9.337-20.856,20.856   c0,11.519,9.338,20.856,20.856,20.856h65.5C401.973,41.712,411.31,32.375,411.31,20.856z"/>
	<path style="fill:#3A3A60;" d="M353.431,20.856C353.431,9.337,362.769,0,374.288,0h-49.333c-11.519,0-20.856,9.337-20.856,20.855   c0,11.519,9.338,20.856,20.856,20.856h49.333C362.769,41.712,353.431,32.375,353.431,20.856z"/>
	<path style="fill:#C7D6E5;" d="M410.082,164.394c0,0.013,0.002,0.025,0.002,0.037v89.834c14.207,20.348,37.781,33.67,64.48,33.67   V130.722C447.864,130.722,424.289,144.046,410.082,164.394z"/>
	<g>
		<path style="fill:#AEBFCE;" d="M410.084,254.266c14.207,20.348,37.781,33.67,64.48,33.67v-61.188    c-26.699,0-50.273-8.137-64.48-20.565V254.266z"/>
	</g>
	<g>
		<path style="fill:#E2E9F2;" d="M411.312,163.263v92.132c0,9.159-7.424,16.584-16.584,16.584c-9.159,0-16.584-7.425-16.584-16.584    v-92.132c0-9.159,7.424-16.584,16.584-16.584C403.888,146.68,411.312,154.104,411.312,163.263z"/>
	</g>
	<path style="fill:#C7D6E5;" d="M394.729,221.978c-9.159,0-16.584-7.425-16.584-16.583v50c0,9.159,7.424,16.583,16.584,16.583   c9.159,0,16.584-7.425,16.584-16.583v-50C411.312,214.553,403.888,221.978,394.729,221.978z"/>
	<path style="fill:#3A3A60;" d="M140.265,81.867h33.167V42.148c0-2.576-0.319-5.077-0.908-7.474   c-11.118,3.735-21.896,8.244-32.259,13.476V81.867z"/>
	<path style="fill:#494970;" d="M297.041,507.577c-21.547-37.321-55.519-96.162-70.368-121.88c-0.85-1.472-1.894-2.764-3.078-3.864   c-3.151,11.73-11.378,21.376-22.185,26.442c14.168,24.54,40.009,69.297,59.752,103.493   C273.357,511.252,285.337,509.831,297.041,507.577z"/>
	<path style="fill:#3A3A60;" d="M146.971,381.833c-1.184,1.1-2.227,2.391-3.078,3.863c-9.427,16.328-26.564,46.01-43.335,75.059   c8.738,6.775,17.95,12.98,27.591,18.546c15.322-26.539,31.048-53.777,41.007-71.027   C158.349,403.209,150.122,393.563,146.971,381.833z"/>
	<path style="fill:#5D5D84;" d="M185.283,413.362c22.615,0,40.947-18.333,40.947-40.947h-81.895   C144.336,395.029,162.668,413.362,185.283,413.362z"/>
	<g>
		<path style="fill:#494970;" d="M202.035,409.748c-13.048,0-23.625-10.577-23.625-23.625c0-5.113,1.629-9.842,4.39-13.708h-38.464    c0,22.615,18.333,40.947,40.947,40.947c5.996,0,11.686-1.299,16.818-3.616C202.079,409.747,202.057,409.748,202.035,409.748z"/>
	</g>
	<path style="fill:#5D5D84;" d="M185.283,392.888c-9.159,0-16.584,7.425-16.584,16.584c0,19.2,0,54.388,0,88.511   c10.719,3.791,21.792,6.861,33.167,9.15c0-37.079,0-77.113,0-97.661C201.867,400.313,194.442,392.888,185.283,392.888z"/>
	<path style="fill:#494970;" d="M185.283,465.8c-9.159,0-16.584-7.425-16.584-16.584c0,15.187,0,32.102,0,48.767   c10.719,3.791,21.792,6.861,33.167,9.15c0-19.584,0-39.99,0-57.917C201.867,458.375,194.442,465.8,185.283,465.8z"/>
	<g>
		<path style="fill:#494970;" d="M231.349,373.643h-92.132c-9.159,0-16.584-7.424-16.584-16.584c0-9.159,7.425-16.584,16.584-16.584    h92.132c9.159,0,16.584,7.424,16.584,16.584C247.932,366.219,240.508,373.643,231.349,373.643z"/>
	</g>
	<path style="fill:#3A3A60;" d="M166.3,357.06c0-9.159,7.425-16.584,16.584-16.584h-43.667c-9.159,0-16.584,7.425-16.584,16.584   s7.425,16.583,16.584,16.583h43.667C173.725,373.643,166.3,366.219,166.3,357.06z"/>
	<path style="fill:#5D5D84;" d="M343.789,76.953H95.874C44.223,119.005,9.801,181.843,5.87,253.587   c-1.684,30.736,2.389,60.451,11.252,88.117h326.667c19.572,0,35.585-16.013,35.585-35.585V112.538   C379.373,92.966,363.36,76.953,343.789,76.953z"/>
	<path style="fill:#494970;" d="M92.979,306.12V112.538c0-19.572,16.013-35.585,35.585-35.585h-32.69   C44.223,119.005,9.801,181.843,5.87,253.587c-1.684,30.735,2.389,60.451,11.252,88.117h111.442   C108.992,341.704,92.979,325.691,92.979,306.12z"/>
	
		<ellipse transform="matrix(0.866 -0.5 0.5 0.866 -80.4254 120.8429)" style="fill:#494970;" cx="185.283" cy="210.497" rx="92.304" ry="92.304"/>
	<path style="fill:#E2E9F2;" d="M489.919,115.355c-9.159,0-16.584,7.424-16.584,16.584c0,30.971,0,122.815,0,154.781   c0,9.159,7.425,16.584,16.584,16.584c9.159,0,16.584-7.425,16.584-16.584c0-30.972,0-122.815,0-154.781   C506.503,122.779,499.078,115.355,489.919,115.355z"/>
	<path style="fill:#C7D6E5;" d="M489.919,243.303c-9.159,0-16.584-7.425-16.584-16.583c0,24.459,0,47.104,0,60   c0,9.159,7.425,16.583,16.584,16.583s16.583-7.425,16.583-16.583c0-12.618,0-35.34,0-60   C506.503,235.878,499.078,243.303,489.919,243.303z"/>
	<g>
		<path style="fill:#3A3A60;" d="M163.647,267.369c0-13.058,6.548-24.581,16.534-31.482v-50.53    c-9.986-6.901-16.534-18.425-16.534-31.482c0-16.232,10.116-30.093,24.383-35.647c-16.572-0.509-33.485,3.434-48.899,12.333    c-44.149,25.489-59.275,81.942-33.786,126.09c17.469,30.258,49.483,46.88,82.112,46.141    C173.492,297.091,163.647,283.383,163.647,267.369z"/>
	</g>
	<path style="fill:#F5585C;" d="M219.208,206.613l-51.053-31.717c-2.13-1.323-4.884,0.208-4.884,2.716v63.434   c0,2.507,2.755,4.038,4.884,2.715l51.053-31.717C221.221,210.794,221.221,207.864,219.208,206.613z"/>
	<path style="fill:#E34450;" d="M219.208,206.613l-12.798-7.951l-38.254,23.766c-2.13,1.323-4.884-0.208-4.884-2.715v21.333   c0,2.507,2.755,4.038,4.884,2.715l51.053-31.717C221.221,210.794,221.221,207.864,219.208,206.613z"/>
</g>















</svg>
